<svg fill="#fff" height="50px" width="50px" version="1.1" id="Layer_1" xmlns="http://www.w3.org/2000/svg" xmlns:xlink="http://www.w3.org/1999/xlink" 
	 viewBox="0 0 512 512" xml:space="preserve">
<g transform="translate(1 1)">
	<g>
		<path d="M476.867,425.667h-99.405c64.86-77.897,64.308-190.352-3.029-274.392c-0.275-7.104-2.741-13.67-6.747-19.031l54.567-53.03
			c3.39-3.39,3.409-8.46,0.067-11.873l30.653-29.94c1.707-1.707,2.56-3.413,2.56-5.973c0-2.56-0.853-4.267-2.56-5.973L429.08,1.56
			c-3.413-3.413-8.533-3.413-11.947,0l-30.579,29.157l-0.141-0.144c-1.707-1.707-3.413-2.56-5.973-2.56
			c-1.707,0-4.267,0.853-5.973,2.56L173.08,225.987c-3.378,3.378-3.407,8.424-0.1,11.837l-18.674,18.03
			c-3.413,3.413-3.413,8.533,0,11.947l23.893,24.747c1.707,1.707,3.413,2.56,5.973,2.56s4.267-0.853,5.973-2.56l18.67-18.026
			l0.104,0.106c1.707,1.707,3.413,2.56,5.973,2.56c1.707,0,4.267-0.853,5.973-2.56l98.417-95.217
			c3.924,3.092,8.534,5.342,13.557,6.479c48.37,66.8,38.548,176.953-21.586,239.778h-73.322V383c0-5.12-3.413-8.533-8.533-8.533
			h-55.893l1.28-0.853c2.56-2.56,4.267-5.973,3.413-9.387l-8.533-34.133c0-2.56-1.707-4.267-3.413-5.12l-25.6-17.067
			c-2.56-1.707-5.973-2.56-8.533-0.853L97.987,324.12c-3.413,1.707-5.12,4.267-5.12,7.68v34.133c0,3.413,1.707,6.827,5.12,7.68
			l2.133,0.853H58.733c-5.12,0-8.533,3.413-8.533,8.533v42.667H33.133C14.36,425.667-1,441.027-1,459.8v42.667
			c0,5.12,3.413,8.533,8.533,8.533h494.933c5.12,0,8.533-3.413,8.533-8.533V459.8C511,441.027,495.64,425.667,476.867,425.667z
			 M109.933,336.92l25.6-11.947l18.773,12.8l5.973,24.747l-17.067,11.093l-33.28-13.653V336.92z M422.253,19.48L434.2,31.427
			l-23.893,23.04L398.36,42.52L422.253,19.48z M184.173,273.773l-11.947-11.947l11.947-11.947l11.947,11.947L184.173,273.773z
			 M214.893,256.707L191,231.96L379.587,47.64l23.893,24.747l-49.493,48.64c-4.267-1.707-8.533-2.56-13.653-2.56
			c-18.773,0-34.133,15.36-34.133,34.133c0,0.539,0.014,1.078,0.041,1.617c0.186,3.948,1.056,7.723,2.485,11.216L214.893,256.707z
			 M327.822,164.15c-0.253-0.746-0.624-1.473-1.142-2.163c-1.206-1.206-2.022-2.605-2.56-4.101c-0.372-1.131-0.636-2.31-0.762-3.529
			c-0.001-0.012-0.003-0.023-0.004-0.035c-0.057-0.566-0.088-1.141-0.088-1.722c0-9.387,7.68-17.067,17.067-17.067
			c0.585,0,1.163,0.03,1.733,0.088c0.004,0,0.007,0.001,0.011,0.001c8.575,0.881,15.323,8.179,15.323,16.977
			c0,2.93-0.749,5.693-2.063,8.108c-0.011,0.019-0.023,0.038-0.034,0.057c-0.199,0.362-0.419,0.709-0.642,1.054
			c-2.844,4.255-7.544,7.245-12.717,7.765c-0.53,0.05-1.066,0.082-1.609,0.082c-0.001,0-0.001,0-0.002,0
			C335.397,169.667,330.946,167.53,327.822,164.15z M352.469,184.483c6.222-2.387,11.58-6.546,15.451-11.855
			c56.872,80.159,51.663,184.033-14.787,253.039h-19.627C388.041,358.351,396.625,255.301,352.469,184.483z M67.267,391.533h153.6
			v34.133h-153.6V391.533z M493.933,493.933H16.067V459.8c0-9.387,7.68-17.067,17.067-17.067h25.6H229.4h85.333H357.4h119.467
			c9.387,0,17.067,7.68,17.067,17.067V493.933z"/>
	</g>
</g>
</svg>