<svg fill="#fff" height="50px" width="50px" version="1.1" id="Capa_1" xmlns="http://www.w3.org/2000/svg" xmlns:xlink="http://www.w3.org/1999/xlink" 
	 viewBox="0 0 164.119 164.119" xml:space="preserve">
<g>
	<path d="M121.243,6.788h-14.925V5c0-2.761-2.239-5-5-5H62.801c-2.761,0-5,2.239-5,5v1.788H42.876
		c-10.985,0-19.922,8.937-19.922,19.922v117.487c0,10.985,8.937,19.922,19.922,19.922h78.366c10.985,0,19.922-8.937,19.922-19.922
		V26.71C141.165,15.725,132.228,6.788,121.243,6.788z M67.801,10h28.517v3.577H67.801V10z M131.165,144.197
		c0,5.471-4.451,9.922-9.922,9.922H42.876c-5.471,0-9.922-4.451-9.922-9.922V26.71c0-5.471,4.451-9.922,9.922-9.922h14.925v1.789
		c0,2.761,2.239,5,5,5h38.517c2.761,0,5-2.239,5-5v-1.789h14.925c5.471,0,9.922,4.451,9.922,9.922V144.197z"/>
	<path d="M117.182,33.775H46.937c-1.657,0-3,1.343-3,3v97.357c0,1.657,1.343,3,3,3h70.245c1.657,0,3-1.343,3-3V36.775
		C120.182,35.119,118.839,33.775,117.182,33.775z M114.182,131.132H49.937V39.775h64.245V131.132z"/>
	<path d="M62.726,62.06h38.667c1.657,0,3-1.343,3-3s-1.343-3-3-3H62.726c-1.657,0-3,1.343-3,3S61.069,62.06,62.726,62.06z"/>
	<path d="M62.726,72.56h38.667c1.657,0,3-1.343,3-3s-1.343-3-3-3H62.726c-1.657,0-3,1.343-3,3S61.069,72.56,62.726,72.56z"/>
	<path d="M62.726,83.06h38.667c1.657,0,3-1.343,3-3s-1.343-3-3-3H62.726c-1.657,0-3,1.343-3,3S61.069,83.06,62.726,83.06z"/>
	<path d="M62.726,93.56h38.667c1.657,0,3-1.343,3-3s-1.343-3-3-3H62.726c-1.657,0-3,1.343-3,3S61.069,93.56,62.726,93.56z"/>
	<path d="M59.726,126.06H79.06c1.657,0,3-1.343,3-3s-1.343-3-3-3H59.726c-1.657,0-3,1.343-3,3S58.069,126.06,59.726,126.06z"/>
</g>
</svg>