<svg fill="#fff" width="80px" height="80px" viewBox="0 0 100 100" version="1.1" xml:space="preserve" xmlns="http://www.w3.org/2000/svg" xmlns:xlink="http://www.w3.org/1999/xlink">
<g id="_x32_0">
<path d="M74.9,86.8H33.2c-1.1,0-2-0.9-2-2c0-1.1,0.8-2,1.9-2c6-0.3,10.7-5.3,10.7-11.3c0-6-4.7-11-10.7-11.3   c-1.1-0.1-1.9-0.9-1.9-2v-37c0-4.3,3.5-7.9,7.9-7.9h35.8c4.3,0,7.9,3.5,7.9,7.9v57.7C82.8,83.2,79.2,86.8,74.9,86.8z M42.9,82.8h32   c2.1,0,3.9-1.7,3.9-3.9V21.1c0-2.1-1.7-3.9-3.9-3.9H39.1c-2.1,0-3.9,1.7-3.9,3.9v35.2c7.2,1.3,12.6,7.6,12.6,15.1   C47.9,75.9,46,79.9,42.9,82.8z M21.8,81.3c-0.6,0-1.2-0.3-1.6-0.8c-1.9-2.6-3-5.8-3-9.1c0-8.4,6.9-15.3,15.3-15.3   c0.3,0,0.5,0,0.8,0c4.7,0.2,9,2.6,11.7,6.4c0.6,0.9,0.4,2.1-0.5,2.8L23,80.9C22.7,81.2,22.2,81.3,21.8,81.3z M32.6,60.1   c-6.2,0-11.3,5.1-11.3,11.3c0,1.8,0.4,3.5,1.2,5l18.1-13.1c-2-1.9-4.5-3.1-7.3-3.2C33,60.1,32.8,60.1,32.6,60.1z M32.6,86.8   c-4.9,0-9.5-2.3-12.3-6.2c-0.3-0.4-0.4-1-0.4-1.5c0.1-0.5,0.4-1,0.8-1.3l21.6-15.6c0.4-0.3,1-0.4,1.5-0.4c0.5,0.1,1,0.4,1.3,0.8   c1.9,2.6,2.9,5.7,2.9,8.9c0,8.2-6.4,14.9-14.5,15.3C33.1,86.7,32.8,86.8,32.6,86.8z M24.8,79.7c2.2,2.1,5.3,3.2,8.4,3.1   c6-0.3,10.7-5.3,10.7-11.3c0-1.7-0.4-3.3-1.1-4.8L24.8,79.7z M45.9,35.6c-4,0-7.3-3.3-7.3-7.3s3.3-7.3,7.3-7.3c4,0,7.3,3.3,7.3,7.3   S49.9,35.6,45.9,35.6z M45.9,25c-1.8,0-3.3,1.5-3.3,3.3c0,1.8,1.5,3.3,3.3,3.3s3.3-1.5,3.3-3.3C49.2,26.5,47.7,25,45.9,25z    M68,35.6c-4,0-7.3-3.3-7.3-7.3S63.9,21,68,21c4,0,7.3,3.3,7.3,7.3S72,35.6,68,35.6z M68,25c-1.8,0-3.3,1.5-3.3,3.3   c0,1.8,1.5,3.3,3.3,3.3s3.3-1.5,3.3-3.3C71.3,26.5,69.8,25,68,25z M45.9,57.7c-4,0-7.3-3.3-7.3-7.3s3.3-7.3,7.3-7.3   c4,0,7.3,3.3,7.3,7.3S49.9,57.7,45.9,57.7z M45.9,47.1c-1.8,0-3.3,1.5-3.3,3.3s1.5,3.3,3.3,3.3s3.3-1.5,3.3-3.3   S47.7,47.1,45.9,47.1z M68,57.7c-4,0-7.3-3.3-7.3-7.3s3.3-7.3,7.3-7.3c4,0,7.3,3.3,7.3,7.3S72,57.7,68,57.7z M68,47.1   c-1.8,0-3.3,1.5-3.3,3.3s1.5,3.3,3.3,3.3s3.3-1.5,3.3-3.3S69.8,47.1,68,47.1z M68,77.7c-4,0-7.3-3.3-7.3-7.3S63.9,63,68,63   c4,0,7.3,3.3,7.3,7.3S72,77.7,68,77.7z M68,67c-1.8,0-3.3,1.5-3.3,3.3s1.5,3.3,3.3,3.3s3.3-1.5,3.3-3.3S69.8,67,68,67z"/></g>
</svg>