<svg width="50px" height="50px" viewBox="-12.34 0 362.697 362.697" xmlns="http://www.w3.org/2000/svg"><defs><style>.a{fill:#ffffff;}.b{fill:#957f6e;}.c{fill:#9fc3e4;}.d{fill:#211715;}.e{fill:#3f88c9;}</style></defs><path class="a" d="M164.476,179.722c-.52-.22-15.26-7.23-15.6-7.35-5.2-1.88-5-5.22-5.65-8.96a73.652,73.652,0,0,1-.986-8.027c13.661-5.558,24.7-24.013,26.613-29.193.284-.863.862-2.485,1.377-4.412.692-.122,1.082-.182,1.082-.182a13.522,13.522,0,0,0,6.295-2.838,20.4,20.4,0,0,0,5.28-6.929A32.12,32.12,0,0,0,186.163,94.8a10.714,10.714,0,0,0-1.122-4.313,7.585,7.585,0,0,0-5.452-3.625,8.029,8.029,0,0,0-6.425,1.88s4.6-44.545-55.07-44.545c-56.112,0-52.7,44.545-52.7,44.545a8.032,8.032,0,0,0-6.426-1.88,7.581,7.581,0,0,0-5.451,3.625A10.716,10.716,0,0,0,52.4,94.8a32.13,32.13,0,0,0,3.276,17.029,20.412,20.412,0,0,0,5.28,6.929,13.527,13.527,0,0,0,6.295,2.838l2.052.313A54.634,54.634,0,0,0,79.71,142.237,47.31,47.31,0,0,0,94.983,154.7a70.967,70.967,0,0,1-1.056,8.716c-.655,3.738-.45,7.079-5.646,8.955-.344.125-16.78,7.812-17.78,8.154,0,0,.687,25.515,41.044,25.515C157.767,206.039,164.476,179.722,164.476,179.722Z"/><path class="b" d="M75.137,164.221c7.536-1.146,13.934-4.792,16.775-9.052,0,0,.4-.64.987-1.584A48.969,48.969,0,0,1,79.71,142.237,54.634,54.634,0,0,1,69.3,121.911l-2.052-.313a13.527,13.527,0,0,1-6.295-2.838,16.524,16.524,0,0,1-2.187-2.149,26.73,26.73,0,0,0-2.707,8.946,43.768,43.768,0,0,0-.3,5.964q.012.607.045,1.218c.237,4.349,1.252,8.78,1.467,13.112.219,4.72-1.01,9.367-5.512,10.9-.178.06-.214.636-.209.783a2.06,2.06,0,0,0,.361,1.009,6.968,6.968,0,0,0,2.309,2.023C59.236,163.64,66.961,165.465,75.137,164.221Z"/><path class="b" d="M181.636,53.3c-.2-1.184-.41-2.281-.612-3.267C175.44,22.654,147.859.917,118.936,2.506,90.012.917,62.432,22.654,56.848,50.037c-1.513,7.386-1.332,20.022.043,25.918L59.66,86.8A7.973,7.973,0,0,1,65.4,88.744c11.431-7.929,30.821-21.7,40.861-30.338-.826,5.125-3.761,13.842-.064,12.946,15.433-3.574,30.225-10.781,39.17-22.025,1.884,6.639,5,15.608,7.289,19.527,3.238,5.546,12.624,18.025,20.513,19.89a8.029,8.029,0,0,1,6.425-1.88,7.692,7.692,0,0,1,1,.219C184.609,77.774,183.255,62.742,181.636,53.3Z"/><path class="c" d="M187.494,188.326c-9.789-5.126-19.439-9.813-31.089-14.642,0,0-.2-.082-.5-.214-1.531,5.364-7.79,20.513-9.523,24.226-2.35-2.893-24.5-16.057-24.818-16.725h-3.691c-.322.668-22.468,13.832-24.818,16.725-1.665-3.569-7.514-17.7-9.321-23.552l-.49.206a428.581,428.581,0,0,0-41.168,20.227c-1.841,1-3.9,1.919-5.763,3.02l3.324,20.488c3.093,24.083,8.016,55.862,13.07,90.02.7,4.744-2.637,29.888-5.659,52.152l-.005.04H194.2c-3.022-22.275-6.365-47.445-5.663-52.192,5.15-34.807,9.778-65.011,12.877-89.427,0,0,1.574-10.688,3.145-21.352-1.732-1-3.562-1.754-5.391-2.749C195.171,192.4,191.322,190.331,187.494,188.326Z"/><path class="d" d="M59.175,75.551a49.4,49.4,0,0,1-.969-9.647,86.377,86.377,0,0,1,.422-11.775,50.281,50.281,0,0,1,6.937-19.921A61.1,61.1,0,0,1,99.559,7.371a55.027,55.027,0,0,1,10.9-2.274c3.775-.375,7.585-.268,11.372-.273a56.041,56.041,0,0,1,21.756,4.462A60.955,60.955,0,0,1,175,39.319a64.594,64.594,0,0,1,5.034,19.406c.919,7.419,1.425,15.283-.176,22.644a28.754,28.754,0,0,1-1.545,4.984,2.415,2.415,0,0,0,1.677,2.953,2.461,2.461,0,0,0,2.952-1.677c3.047-7.3,3-15.861,2.42-23.618-.546-7.275-1.552-14.783-3.993-21.687-5.3-14.992-16.687-27.556-30.7-34.958A63.254,63.254,0,0,0,127.588.315,111.138,111.138,0,0,0,115.675.024a59.809,59.809,0,0,0-12.04,1.32A65.983,65.983,0,0,0,64.408,27.231a58.172,58.172,0,0,0-9.654,21.14,73.646,73.646,0,0,0-.965,23.574,42.331,42.331,0,0,0,.757,4.882c.685,3.011,5.313,1.737,4.629-1.276Z"/><path class="d" d="M143.276,50.771c1.118,3.822,2.359,7.612,3.769,11.336a51.08,51.08,0,0,0,3.98,8.7,64.688,64.688,0,0,0,12.294,14.84c2.674,2.332,5.712,4.534,9.207,5.409,3,.749,4.275-3.878,1.276-4.629-5.359-1.341-9.965-6.6-13.458-10.836a50.3,50.3,0,0,1-8.321-13.852c-1.562-4.014-2.91-8.114-4.119-12.247-.865-2.959-5.5-1.7-4.628,1.276Z"/><path class="d" d="M143.82,47.434a55.514,55.514,0,0,1-19.012,14.848,80.906,80.906,0,0,1-11.7,4.692q-3.142,1-6.349,1.777c-.263.064-.541.116-.8.193-.393.116-.451-.081-.128.067-.145-.067-.325-.195.177.049a2.211,2.211,0,0,1,.595.352.613.613,0,0,1,.23.335c.005-.069-.044-.458-.046-.133,0,.365-.01-.229-.011-.3-.023-3.308,1.226-6.827,1.8-10.271a2.422,2.422,0,0,0-4.012-2.335C94.483,65.354,83.54,73.039,72.711,80.7q-4.249,3.006-8.528,5.974a2.464,2.464,0,0,0-.861,3.284,2.422,2.422,0,0,0,3.284.861c11.3-7.843,22.532-15.823,33.4-24.268,2.693-2.094,5.361-4.224,7.951-6.446l-4.012-2.335c-.61,3.673-1.89,7.34-1.969,11.085a4.971,4.971,0,0,0,1.577,4.229c1.751,1.337,3.98.439,5.883-.055A82.014,82.014,0,0,0,135.748,61.4a53.7,53.7,0,0,0,11.466-10.571,2.477,2.477,0,0,0,0-3.394,2.417,2.417,0,0,0-3.394,0Z"/><path class="d" d="M56.683,115.4c-3.1,6.137-3.808,13.16-3.064,19.933.4,3.622,1.15,7.222,1.26,10.872.068,2.245-.121,4.884-1.594,6.71-.775.96-1.73,1.163-2.741,1.754-1.643.961-1.66,3.249-.886,4.764,1.362,2.668,4.739,4.112,7.375,5.181a35.74,35.74,0,0,0,19.605,1.778c6.577-1.182,13.479-4.356,17.35-10.009,1.749-2.556-2.408-4.959-4.145-2.423-3.66,5.347-11.313,7.731-17.462,8.167a31.82,31.82,0,0,1-11.188-1.136,24.242,24.242,0,0,1-4.275-1.665,15.626,15.626,0,0,1-2.137-1.251c-.232-.17-.47-.492-.706-.625-.3-.17-.023-.268-.115.057l-.617,1.059.11-.128-1.059.618c7.672-2.774,7.7-11.145,6.8-17.973-1.04-7.83-2.065-15.921,1.638-23.26,1.388-2.751-2.752-5.184-4.145-2.423Z"/><path class="d" d="M174.861,90.441a5.516,5.516,0,0,1,7.922.949,9.224,9.224,0,0,1,1.067,4.754,28.7,28.7,0,0,1-.342,6.065c-1.211,7.083-4.944,15.719-12.834,17.075A2.419,2.419,0,0,0,169,122.236a2.455,2.455,0,0,0,2.952,1.676c8.171-1.4,13.02-9.12,15.256-16.488a33.937,33.937,0,0,0,1.407-11.951c-.257-3.959-1.454-7.683-5.1-9.744a10.537,10.537,0,0,0-12.042,1.318,2.42,2.42,0,0,0,0,3.394,2.448,2.448,0,0,0,3.394,0Z"/><path class="d" d="M168.829,115.62a26.93,26.93,0,0,1-1.275,6.8c-.256.858-.537,1.707-.822,2.555-.077.229-.15.46-.234.687-.067.179-.365.846-.056.156a53.971,53.971,0,0,1-3.583,6.565,63.982,63.982,0,0,1-14.279,16.468,27.2,27.2,0,0,1-10.586,5.358c-3.01.692-1.736,5.321,1.276,4.629,8.045-1.85,14.78-7.653,20.081-13.725A69.283,69.283,0,0,0,170.4,128.652a35.122,35.122,0,0,0,3.225-13.032c.1-3.09-4.7-3.086-4.8,0Z"/><path class="d" d="M67.092,87.047a10.5,10.5,0,0,0-10.613-1.98c-3.932,1.551-5.9,4.858-6.4,8.928a32.932,32.932,0,0,0,5.766,22.774,17.219,17.219,0,0,0,10.759,7.143,2.469,2.469,0,0,0,2.952-1.676,2.418,2.418,0,0,0-1.676-2.952C60,117.929,56.261,109.291,55.05,102.209a28.624,28.624,0,0,1-.35-5.841c.059-1.651.133-3.553,1.075-4.978a5.514,5.514,0,0,1,7.923-.949,2.461,2.461,0,0,0,3.394,0,2.421,2.421,0,0,0,0-3.394Z"/><path class="d" d="M65.255,114.844c2.923,16.865,12.063,33.37,27.689,41.509a37.5,37.5,0,0,0,13.559,4.056,2.415,2.415,0,0,0,2.4-2.4,2.454,2.454,0,0,0-2.4-2.4c-16.111-1.67-28.665-16.118-33.725-30.634a71.785,71.785,0,0,1-2.894-11.407,2.42,2.42,0,0,0-2.953-1.676,2.455,2.455,0,0,0-1.676,2.952Z"/><path class="e" d="M211.307,326.634a52.954,52.954,0,0,1-9.44-10.829c-2.158-3.821-7.133-14.333-8.4-20.674l-2.2-5.411c4.039-27.134,7.606-51.032,10.146-71.042l3.13-21.256c1.767.964,3.074,1.675,3.074,1.675a27.723,27.723,0,0,1,3.766,2.582c3.611,4.278,6.16,11.3,7.353,15.872,1.959,7.514,5.057,20.647,8.248,34.218a106.89,106.89,0,0,1,4.4,12.648l8.127.461L220.844,324.73Z"/><path class="e" d="M3.192,308.752c3.259,1.556,36.686,4.148,42.787,4.148h6.715a27.892,27.892,0,0,0,.013-4.795c-5.054-34.158-9.977-65.937-13.07-90.02,0,0-2.959-18.238-3.283-20.223L34.083,199.1a27.71,27.71,0,0,0-3.765,2.582c-3.611,4.278-6.161,11.3-7.354,15.872-1.959,7.514-7.78,33.571-9.994,42.608-1.426,5.822-6.964,31.54-9.629,41.294-.8,2.936-1.63,6.855-.149,7.3"/><path class="a" d="M50.131,313.086l-4.152-.186c-4.109,0-20.614-1.176-31.948-2.418l-.024.27c-.472,5.479-3.393,43.291-3.111,49.545H47.043c2.421-17.837,5.047-37.532,5.636-47.1Z"/><path class="a" d="M251.174,226.878c1.558-3.146,3.583-6.249,4.426-8.237,1.166-2.749.382-7.381,1.207-10.229,1.881-6.5,4.123-10.151,8.272-15.16a162.958,162.958,0,0,1,13.906-14.547c2.22-2.1,4.454-3.523,7.23-1.631,3.087,2.1,1.946,4.934.6,8.091-2.5,5.879-8.636,10.746-10.589,15.787,0,0-.117.3-.307.767,4.785-1.023,18.528-3.394,21.117-3.983s4.373-2.057,6.723-3.161c4.541-2.133,9.611-5.369,14.533-6.341,1.34-.265,2.779.5,3.588.388,2.309-1.488,7.082-1.212,9.736-.491,9.478,4.38-.15,17.519-5.68,21.8-3.812,2.949-9.423,7.55-13.587,10.081-4.5,2.736-8.635,5.161-14.492,6.881-5.54,1.626-12.8,3.5-18.039,5.991-3.17,2.2-6.809,4.4-8.747,10.729-3.664,19.013-7.127,55.512-10.709,67.608-3.53,11.923-4.821,21.1-15.831,28-5.995,3.759-11.456,5.42-17.98,1.966-8.758-4.637-11.986-13.579-10.42-22.142a93.014,93.014,0,0,1,6.7-20.777c5.883-12.126,22.545-58.5,28.031-70.747C250.965,227.305,251.069,227.091,251.174,226.878Z"/><path class="a" d="M180.35,238.377h-27.2c0,1.971.044,10.008.044,12.384,4.54,0,23.742.043,27.158.043C180.35,247.519,180.317,238.769,180.35,238.377Z"/><path class="e" d="M146.382,197.7c1.8-3.858,8.489-20.064,9.68-24.809a42.554,42.554,0,0,0-8.665-11.708,86.151,86.151,0,0,1-24.866,17.329c-.514.234-1.088.519-1.254,1.059a1.993,1.993,0,0,0,.287,1.4C121.886,181.639,144.032,194.8,146.382,197.7Z"/><path class="e" d="M93.055,197.7c-1.8-3.858-8.489-20.064-9.68-24.809a42.558,42.558,0,0,1,8.666-11.708,86.133,86.133,0,0,0,24.865,17.329c.515.234,1.089.519,1.254,1.059a1.993,1.993,0,0,1-.287,1.4C117.551,181.639,95.405,194.8,93.055,197.7Z"/><path class="d" d="M94.146,156.656q-.144,2.2-.438,4.391l.086-.638c-.129.955-.276,1.907-.435,2.857a2.608,2.608,0,0,0,.242,1.85,2.4,2.4,0,0,0,3.284.861,2.338,2.338,0,0,0,1.1-1.435,79.151,79.151,0,0,0,.958-7.886,2.414,2.414,0,0,0-2.4-2.4,2.456,2.456,0,0,0-2.4,2.4Z"/><path class="d" d="M141.341,155.279a82.414,82.414,0,0,0,.921,8.64,2.4,2.4,0,0,0,1.1,1.434,2.4,2.4,0,0,0,3.283-.861,2.77,2.77,0,0,0,.242-1.849q-.145-.937-.272-1.876l.085.638q-.4-3.051-.562-6.126a2.4,2.4,0,1,0-4.8,0Z"/><path class="d" d="M10.9,362.7H194.007c3.088,0,3.094-4.8,0-4.8H10.9c-3.089,0-3.094,4.8,0,4.8Z"/><path class="d" d="M49.363,360.9c1.8-13.27,3.667-26.545,5.037-39.868a94.657,94.657,0,0,0,.8-11.591,63.158,63.158,0,0,0-1.049-7.856q-.863-5.805-1.73-11.608c-2.136-14.292-4.291-28.583-6.366-42.885q-1.359-9.372-2.654-18.755c-.548-4.008-.986-8.039-1.633-12.032L38.64,197.041a2.419,2.419,0,0,0-2.952-1.677,2.459,2.459,0,0,0-1.676,2.953l2.83,17.444c.15.926.3,1.851.45,2.778l.03.18c-.127-.812.04.34.05.413q.068.528.137,1.057.282,2.158.571,4.318,1.238,9.246,2.568,18.478c2,13.958,4.095,27.9,6.182,41.847q1.715,11.463,3.417,22.926c-.007-.047.19,1.563.115.764-.047-.5-.009-.095-.008,0,0,.256.032.516.04.772.019.686,0,1.372-.022,2.058-.072,1.981-.233,3.96-.41,5.935-1.266,14.158-3.317,28.255-5.228,42.336a2.483,2.483,0,0,0,1.676,2.952,2.417,2.417,0,0,0,2.953-1.676Z"/><path class="d" d="M82.606,172.036q-13.239,5.57-26.021,12.121c-4.077,2.089-8.122,4.238-12.153,6.414-4.049,2.186-8.442,4.038-12.089,6.867a2.412,2.412,0,0,0,0,3.394,2.461,2.461,0,0,0,3.394,0,34.475,34.475,0,0,1,5.7-3.225c1.96-.989,3.876-2.061,5.807-3.1,3.9-2.1,7.816-4.181,11.76-6.2,8.15-4.175,16.434-8.087,24.875-11.638a2.481,2.481,0,0,0,1.676-2.952,2.414,2.414,0,0,0-2.952-1.676Z"/><path class="d" d="M155.767,176c8.605,3.573,17.054,7.509,25.357,11.735,3.949,2.009,7.867,4.078,11.769,6.176,2.08,1.118,4.136,2.293,6.246,3.354a35.413,35.413,0,0,1,5.932,3.246,2.48,2.48,0,0,0,3.394,0,2.415,2.415,0,0,0,0-3.394c-3-2.325-6.53-3.77-9.854-5.571q-4.774-2.589-9.581-5.121c-6.416-3.365-12.9-6.6-19.489-9.616q-6.2-2.838-12.5-5.438a2.415,2.415,0,0,0-2.952,1.676A2.461,2.461,0,0,0,155.767,176Z"/><path class="d" d="M206.407,201.169c.688.385,1.349.82,2,1.26.351.237.707.472,1.044.73-.281-.216.415.435.489.527a28.46,28.46,0,0,1,3.555,6.137,70.067,70.067,0,0,1,3.912,12.239c1.239,4.947,2.426,9.906,3.607,14.867q1.068,4.494,2.127,8.99.508,2.155,1.015,4.311a26.02,26.02,0,0,0,1.054,3.417,79.566,79.566,0,0,1,3.857,11.408c.727,3,5.357,1.73,4.628-1.276a83.072,83.072,0,0,0-3.6-10.756,23.584,23.584,0,0,1-.967-2.3c-.4-1.465-.667-3.126-1.026-4.651q-1.07-4.539-2.145-9.078c-1.258-5.3-2.523-10.6-3.843-15.88a81.317,81.317,0,0,0-4.082-12.822,34.414,34.414,0,0,0-4.137-7.275,16.086,16.086,0,0,0-5.072-3.993c-2.7-1.512-5.121,2.633-2.423,4.145Z"/><path class="d" d="M32.872,197.024a16.568,16.568,0,0,0-4.475,3.229,29.5,29.5,0,0,0-4.091,6.615,63.787,63.787,0,0,0-4.155,12.019c-1.91,7.719-3.648,15.482-5.432,23.231q-4.888,21.24-9.76,42.483c-1.008,4.392-2.026,8.783-3.131,13.152-.513,2.028-1.137,4.041-1.514,6.1-.5,2.723-.791,5.961,2.24,7.213a2.414,2.414,0,0,0,2.952-1.676,2.46,2.46,0,0,0-1.676-2.952l.906.667q.156.411.031-.019c0,.006.031.659.008-.135a8.177,8.177,0,0,1,.076-1.29,28.2,28.2,0,0,1,.8-3.57q.572-2.133,1.1-4.274c.948-3.811,1.838-7.637,2.719-11.464,1.713-7.448,3.352-14.913,5.058-22.363,3.146-13.746,6.312-27.5,9.6-41.208a82.314,82.314,0,0,1,3.243-11.031,35.606,35.606,0,0,1,3.807-7.289,10.456,10.456,0,0,1,.91-1.174,3.376,3.376,0,0,1,.266-.226c-.32.276.352-.241.436-.3.806-.563,1.632-1.113,2.49-1.594,2.7-1.51.278-5.658-2.422-4.145Z"/><path class="d" d="M191.151,295.769c1.278,6.192,4.082,12.2,6.867,17.842a48,48,0,0,0,11.592,14.72c2.313,2.032,5.721-1.35,3.394-3.394a55.038,55.038,0,0,1-7.318-7.78,35.129,35.129,0,0,1-3.524-5.969c-2.61-5.287-5.184-10.891-6.382-16.695-.624-3.023-5.252-1.743-4.629,1.276Z"/><path class="d" d="M209.843,300.477a108.344,108.344,0,0,1,6.709-8.52,36.22,36.22,0,0,1,8.273-7.028,2.4,2.4,0,0,0-2.422-4.145c-7.034,4.247-11.9,10.773-16.7,17.271a2.416,2.416,0,0,0,.861,3.283,2.456,2.456,0,0,0,3.284-.861Z"/><path class="d" d="M268.759,242.971c-3.21,16.73-4.835,33.741-7.4,50.574a160.9,160.9,0,0,1-4.083,19.723c-2.248,7.938-4.248,16.054-10.808,21.615-3.5,2.966-8.308,5.855-13.034,5.787-4.518-.065-8.975-3.009-11.68-6.5-5.946-7.684-3.1-17.4-.346-25.743,2.019-6.121,4.917-11.876,7.362-17.83,2.712-6.6,5.278-13.268,7.836-19.933,5.066-13.2,9.877-26.522,15.318-39.575.051-.123.436-1.032.165-.4.086-.2.171-.4.258-.6q.291-.679.593-1.355a2.476,2.476,0,0,0-.861-3.284,2.419,2.419,0,0,0-3.284.861c-2.361,5.286-4.418,10.715-6.5,16.113-2.882,7.456-5.712,14.933-8.565,22.4-2.751,7.2-5.506,14.4-8.384,21.545q-.894,2.221-1.811,4.433-.189.454-.38.909c-.162.385.217-.511-.046.108-.054.127-.107.254-.161.38q-.4.936-.808,1.869c-1.358,3.088-2.831,6.107-4.015,9.272-3.444,9.2-6.927,19.788-2.784,29.307A22.211,22.211,0,0,0,225,343.071a17.738,17.738,0,0,0,16.134.679,32.223,32.223,0,0,0,12.133-8.942,36.438,36.438,0,0,0,6.047-11.515,144.061,144.061,0,0,0,5.493-21.234c3.069-17.435,4.719-35.088,7.641-52.547q.441-2.639.941-5.265a2.463,2.463,0,0,0-1.677-2.952,2.422,2.422,0,0,0-2.952,1.676Z"/><path class="d" d="M252.937,228.73c1.368-2.852,3.145-5.488,4.5-8.345,1.283-2.717,1.232-5.6,1.349-8.541.206-5.16,2.959-10.247,5.966-14.327a120.025,120.025,0,0,1,13.44-14.729c1.124-1.087,2.22-2.266,3.449-3.238.943-.746,1.861-1.263,2.974-.652,2.137,1.173.826,3.54-.017,5.4-2.681,5.917-8.237,9.966-10.68,16.016a2.416,2.416,0,0,0,1.677,2.952,2.458,2.458,0,0,0,2.952-1.676c1.05-2.6,3.1-4.823,4.84-6.977a37.551,37.551,0,0,0,5.507-8.237c1.232-2.8,2.569-6.089.874-9.007a7.128,7.128,0,0,0-9.417-2.7,18.617,18.617,0,0,0-3.991,3.222q-2.061,1.965-4.082,3.972c-2.638,2.634-5.2,5.349-7.621,8.182a61.865,61.865,0,0,0-6.025,7.973,38.9,38.9,0,0,0-3.77,8.542,19.982,19.982,0,0,0-.876,5.281,27.911,27.911,0,0,1-.315,4.923,15.576,15.576,0,0,1-1.938,4.092c-1.018,1.8-2.042,3.586-2.936,5.448a2.466,2.466,0,0,0,.861,3.284,2.423,2.423,0,0,0,3.284-.861Z"/><path class="d" d="M276.02,204.152c7.1-1.59,14.355-2.474,21.459-4.058,2.857-.638,5.263-2.366,7.862-3.621,2.869-1.386,5.636-2.981,8.55-4.273a25.939,25.939,0,0,1,3.841-1.372,4.007,4.007,0,0,1,1.533-.226,18.148,18.148,0,0,0,2.487.425c1.21-.027,2.167-.816,3.388-.989a15.292,15.292,0,0,1,3.641,0,5.8,5.8,0,0,1,2.692.745,3.893,3.893,0,0,1,1.4,1.537,4.209,4.209,0,0,1,.271.868c.026.105.085.606.041.189a7.529,7.529,0,0,1-.4,3.187c-1.142,3.753-3.874,7.326-6.752,10.1a67.166,67.166,0,0,1-5.251,4.273c-2.276,1.786-4.562,3.564-6.937,5.219a59.933,59.933,0,0,1-15.092,7.939c-6.439,2.133-13.073,3.544-19.3,6.321a21.219,21.219,0,0,0-5.963,4.366,19.928,19.928,0,0,0-4.74,8.19c-.934,2.952,3.7,4.215,4.629,1.276a15.356,15.356,0,0,1,5.323-7.663,17.486,17.486,0,0,1,3.773-2.286c1.917-.8,3.894-1.475,5.874-2.108,3.938-1.258,7.972-2.219,11.889-3.538a59.789,59.789,0,0,0,11.427-5.434,96.774,96.774,0,0,0,9.629-6.649,95.5,95.5,0,0,0,8.128-6.512c4.139-3.987,8.468-9.834,8.583-15.822a8.739,8.739,0,0,0-5.043-8.108,14.655,14.655,0,0,0-6.169-.98,12.048,12.048,0,0,0-6.131,1.4l1.211-.328c-.773.026-1.732-.361-2.576-.419a9.57,9.57,0,0,0-3.251.507,39.688,39.688,0,0,0-6.382,2.587c-1.958.956-3.871,2-5.821,2.974-1.9.945-3.729,2.085-5.658,2.958a27.792,27.792,0,0,1-6.35,1.474c-2.964.548-5.93,1.081-8.894,1.627-2.739.5-5.488.985-8.206,1.593-3.013.674-1.738,5.3,1.276,4.629Z"/><path class="d" d="M289.223,210.082c-3.576.584-7.333.8-10.955,1.542a22.006,22.006,0,0,0-10.3,4.858,2.4,2.4,0,0,0,3.395,3.394c5.115-4.5,12.786-4.128,19.138-5.166a2.417,2.417,0,0,0,1.676-2.952,2.457,2.457,0,0,0-2.952-1.676Z"/><path class="d" d="M317.8,190.641a37.279,37.279,0,0,1-8.6,6.262,57.759,57.759,0,0,1-9.465,4.3,2.46,2.46,0,0,0-1.677,2.953,2.423,2.423,0,0,0,2.953,1.676,66.02,66.02,0,0,0,10.612-4.788,42.306,42.306,0,0,0,9.571-7.013c2.165-2.206-1.226-5.6-3.395-3.394Z"/><path class="d" d="M324.14,195.323a13.883,13.883,0,0,1-1.76,1.745c-.214.182-.433.36-.652.536-.564.453.374-.276-.223.173q-.669.5-1.356.981c-2.046,1.428-4.182,2.727-6.345,3.968q-3.123,1.792-6.34,3.412c-.845.425-1.695.841-2.553,1.238-.314.146-.633.284-.948.428-.538.247.426-.159.022-.007-.137.052-.272.11-.408.162a2.471,2.471,0,0,0-1.677,2.953,2.419,2.419,0,0,0,2.953,1.676,83.2,83.2,0,0,0,11.374-5.717c2.234-1.282,4.44-2.625,6.547-4.109a23.517,23.517,0,0,0,4.76-4.045,2.47,2.47,0,0,0,0-3.394,2.419,2.419,0,0,0-3.394,0Z"/><path class="d" d="M1.981,310.824A19.556,19.556,0,0,0,7.4,312.057c3.24.463,6.494.823,9.75,1.152q10.638,1.074,21.317,1.745c2.5.158,5.006.341,7.51.346,3.089.007,3.094-4.793,0-4.8-5.324-.011-10.677-.535-15.98-.951-6.865-.538-13.737-1.127-20.566-2.016-.472-.061-.066-.008.025,0l-.589-.081q-.552-.078-1.1-.162c-.58-.089-1.158-.182-1.734-.29-.423-.079-.846-.162-1.263-.266-.391-.1-1.19-.436-.366-.058a2.47,2.47,0,0,0-3.283.861,2.419,2.419,0,0,0,.861,3.283Z"/><path class="d" d="M11.607,310.752c-1.188,13.832-2.2,27.7-2.895,41.569-.132,2.649-.329,5.332-.216,7.987.13,3.077,4.931,3.093,4.8,0-.253-5.946.416-12.017.8-17.944q.771-12.012,1.71-24.012c.2-2.534.387-5.068.605-7.6a2.419,2.419,0,0,0-2.4-2.4,2.449,2.449,0,0,0-2.4,2.4Z"/><path class="d" d="M5.711,295.745c9.155.9,18.31,1.817,27.482,2.525,2.342.181,4.688.361,7.036.438,3.09.1,3.086-4.7,0-4.8-9.981-.326-19.975-1.534-29.908-2.508q-2.305-.225-4.61-.455a2.417,2.417,0,0,0-2.4,2.4,2.453,2.453,0,0,0,2.4,2.4Z"/><path class="d" d="M116.644,180.185c0,7.323-.058,14.646-.1,21.968q-.108,21.032-.227,42.063-.136,24.5-.275,48.989-.12,21.354-.238,42.708c-.042,7.739-.094,15.479-.115,23.218q0,.434,0,.867c0,3.089,4.8,3.094,4.8,0,0-6.688.06-13.377.095-20.066q.111-20.546.228-41.091.138-24.468.275-48.935.121-21.786.238-43.571c.043-8.333.1-16.666.115-25q0-.575,0-1.151c0-3.088-4.8-3.094-4.8,0Z"/><path class="d" d="M196.511,359.633c-1.787-13.173-3.644-26.352-4.966-39.581a72.758,72.758,0,0,1-.679-11.17c.011-.194.031-.387.046-.581-.091,1.216.064-.4.085-.542q.109-.735.218-1.471l.936-6.311q.844-5.685,1.692-11.37c2.067-13.882,4.14-27.764,6.124-41.658q1.332-9.327,2.591-18.663.575-4.282,1.124-8.568c.009-.075.162-1.223.047-.406l.008-.055c.011-.078.023-.155.035-.233.066-.443.13-.887.2-1.33l2.895-19.661a2.478,2.478,0,0,0-1.676-2.952,2.417,2.417,0,0,0-2.952,1.676c-2.205,14.971-4.213,29.962-6.331,44.945-1.955,13.83-4.012,27.645-6.068,41.46q-1.736,11.661-3.466,23.321A44.491,44.491,0,0,0,186.456,317c1.293,14.686,3.445,29.309,5.426,43.914a2.415,2.415,0,0,0,2.953,1.676,2.464,2.464,0,0,0,1.676-2.952Z"/><path class="d" d="M180.35,235.977h-27.2a2.435,2.435,0,0,0-2.4,2.4c0,4.128.042,8.256.044,12.384a2.435,2.435,0,0,0,2.4,2.4c9.053,0,18.106.043,27.158.043a2.433,2.433,0,0,0,2.4-2.4c0-4.123-.238-8.31,0-12.427.18-3.086-4.621-3.076-4.8,0-.238,4.117,0,8.3,0,12.427l2.4-2.4c-9.052,0-18.1-.043-27.158-.043l2.4,2.4c0-4.128-.042-8.256-.044-12.384l-2.4,2.4h27.2C183.439,240.777,183.444,235.977,180.35,235.977Z"/><path class="d" d="M148.454,198.908c2.034-4.378,3.82-8.886,5.6-13.372,1.008-2.542,2-5.093,2.92-7.668.365-1.021.723-2.046,1.043-3.083.107-.348.222-.7.305-1.051a4.092,4.092,0,0,0-.773-3.155,44.187,44.187,0,0,0-8.455-11.1,2.444,2.444,0,0,0-3.395,0A82.939,82.939,0,0,1,129.547,172.1q-2.025,1.216-4.115,2.322c-1.5.788-3.123,1.4-4.576,2.25a3.892,3.892,0,0,0-.285,6.575c2.035,1.514,4.264,2.8,6.407,4.149,3.442,2.172,6.887,4.34,10.289,6.575,1.663,1.093,3.322,2.2,4.938,3.361.344.248.684.5,1.024.755.463.345-.405-.327.023.017.114.091.229.181.342.274a8.028,8.028,0,0,1,1.091,1.018,2.418,2.418,0,0,0,3.394,0,2.451,2.451,0,0,0,0-3.394,19.243,19.243,0,0,0-3.692-2.986c-1.965-1.4-3.983-2.73-6.007-4.045-4.176-2.714-8.41-5.333-12.6-8.017-.71-.454-1.42-.907-2.116-1.38a6.009,6.009,0,0,0-.616-.434c.08.04.527.467.285.214-.053-.056.289.675.348.216l-.328,1.211-.222.121a3.611,3.611,0,0,1,.46-.244c.234-.117.476-.221.714-.331q.846-.392,1.681-.8,1.8-.891,3.558-1.872,3.526-1.965,6.859-4.254a87.81,87.81,0,0,0,12.695-10.518H145.7a41.22,41.22,0,0,1,8.29,11.222l-.241-1.849a105.109,105.109,0,0,1-4.554,12.592c-1.646,4.129-3.07,7.738-4.884,11.644a2.47,2.47,0,0,0,.861,3.284A2.419,2.419,0,0,0,148.454,198.908Z"/><path class="d" d="M95.128,196.485c-1.813-3.9-3.239-7.516-4.885-11.644a104.868,104.868,0,0,1-4.553-12.592l-.242,1.849a41.246,41.246,0,0,1,8.29-11.222H90.344a87.7,87.7,0,0,0,12.7,10.518q3.24,2.221,6.671,4.15,1.755.985,3.559,1.883.835.416,1.681.811c.247.115.5.224.745.343a3.726,3.726,0,0,1,.464.233q.339.188-.071-.036l-.328-1.211c.063.483.6-.464.263-.144.386-.364.377-.275-.03,0q-.862.585-1.74,1.148c-1.849,1.193-3.714,2.36-5.575,3.535-4.355,2.749-8.735,5.479-12.956,8.432A21.9,21.9,0,0,0,91.358,196a2.467,2.467,0,0,0,0,3.394,2.419,2.419,0,0,0,3.394,0,7.208,7.208,0,0,1,.883-.846c.18-.152.366-.3.55-.446.428-.344-.44.328.023-.017.189-.141.376-.282.566-.421,1.351-.992,2.74-1.932,4.135-2.861,3.431-2.285,6.919-4.486,10.4-6.686,2.411-1.522,4.889-2.979,7.217-4.628,1.623-1.15,2.721-3.12,1.7-5.132-.741-1.463-2.222-1.951-3.607-2.617q-2.283-1.1-4.494-2.34a83.277,83.277,0,0,1-18.394-13.917,2.444,2.444,0,0,0-3.394,0,43.261,43.261,0,0,0-7.623,9.636c-.494.834-1,1.681-1.418,2.558a3.314,3.314,0,0,0-.061,2.514c.265.923.574,1.834.89,2.74,1.817,5.219,3.909,10.348,6.035,15.446.912,2.187,1.817,4.382,2.816,6.532a2.421,2.421,0,0,0,3.284.861A2.456,2.456,0,0,0,95.128,196.485Z"/><path class="d" d="M109.927,131.845a21.228,21.228,0,0,0,10.223,2.361c3.638-.024,7.341-.728,10.258-3a2.412,2.412,0,0,0,0-3.394,2.462,2.462,0,0,0-3.394,0c.711-.553.095-.085-.087.031-.208.134-.422.257-.641.372-.152.079-.905.393-.306.165-.293.112-.585.226-.884.322a15.23,15.23,0,0,1-5.279.705,15.856,15.856,0,0,1-5.036-.678c-.324-.1-.64-.213-.96-.323-.1-.035-.2-.089-.309-.12.59.173.17.076.013,0q-.594-.279-1.175-.586a2.453,2.453,0,0,0-3.284.861,2.426,2.426,0,0,0,.861,3.283Z"/><path class="d" d="M119.065,107.588a48.658,48.658,0,0,1,1.145,5.241l-.086-.638a3.124,3.124,0,0,1,.02.723l.086-.638a1.715,1.715,0,0,1-.08.325l.242-.573a1.216,1.216,0,0,1-.115.209l.376-.486a1.058,1.058,0,0,1-.172.169l.486-.375a3.356,3.356,0,0,1-.415.22l.573-.242a3.046,3.046,0,0,1-.7.2l.638-.086a2.831,2.831,0,0,1-.657,0l.638.086c-.247-.035-.49-.095-.738-.128a2.649,2.649,0,0,0-1.849.241,2.4,2.4,0,0,0-.861,3.284,2.3,2.3,0,0,0,1.434,1.1c.538.073,1.06.21,1.607.234a5.089,5.089,0,0,0,2.337-.551,3.308,3.308,0,0,0,1.853-2.189,5.616,5.616,0,0,0-.025-2.39c-.285-1.689-.676-3.362-1.11-5.018a2.4,2.4,0,0,0-4.628,1.276Z"/><path class="d" d="M91.079,92.824c-.875,2.844-.3,9.386,5.083,9.942,7.121-.042,7.5-7.952,5.1-11.671C99.3,88.05,93.531,86.784,91.079,92.824Z"/><path class="d" d="M148.1,92.824c.875,2.844.3,9.386-5.083,9.942-7.121-.042-7.5-7.952-5.1-11.671C139.88,88.05,145.651,86.784,148.1,92.824Z"/></svg>